<svg version="1.2" xmlns="http://www.w3.org/2000/svg" viewBox="0 0 130 38" width="130" height="38">
	<title>Ponto Ágil Logo</title>
	<style>
		.s0 { fill: #e2256c } 
		.s1 { fill: #e3266d } 
		.s2 { fill: #cd2262 } 
		.s3 { fill: #de256a } 
		.s4 { fill: #e8266f } 
		.s5 { fill: #e92670 } 
		.s6 { fill: #e9e9e9 } 
		.s7 { fill: #dddddd } 
		.s8 { fill: #f2f2f2 } 
		.s9 { fill: #f0f0f0 } 
		.s10 { fill: #dedede } 
		.s11 { fill: #e2276d } 
		.s12 { fill: #e3266c } 
	</style>
	<g id="Layer">
		<path id="Layer" fill-rule="evenodd" class="s0" d="m22 37.4q-0.6 0-1.1 0-0.2-1.7 0.4-3.1 10.8-1.9 12.9-12.8 0.9-14.8-13.3-17.9-0.4-1.5-0.3-3.1 11 1.1 15.6 11.2 4.8 14.5-7.4 23.4-3.2 1.9-6.8 2.3z"/>
	</g>
	<g id="Layer">
		<path id="Layer" fill-rule="evenodd" class="s1" d="m17.8 6.5q11.3-0.2 13.7 11-1.7 0-3.3 0-1.7-7.1-8.9-7.6-6 0.3-8.5 5.8-0.4 0.9-0.3 1.8-1.7 0-3.4 0 1.6-9.2 10.7-11z"/>
	</g>
	<g id="Layer">
		<path id="Layer" fill-rule="evenodd" class="s2" d="m101.2 11q0.4 0 0.8 0.2 0.5 0.8 0.3 1.6-1.6 0.7-3.3 1.2-1.5 0.2-0.9-1.2 1.7-0.7 3.1-1.8z"/>
	</g>
	<g id="Layer">
		<path id="Layer" fill-rule="evenodd" class="s1" d="m18 12.8q7.3-0.2 7.4 7.2-1.4 5.4-7 5.2-5.9-1.5-5.2-7.7 1.1-3.7 4.8-4.7zm-1.2 7.8q2.3 2.6 4.8 0.3 1.8-4.1-2.5-5-3.6 1.1-2.3 4.7z"/>
	</g>
	<g id="Layer">
		<path id="Layer" fill-rule="evenodd" class="s0" d="m101.4 15.5q1.8 5.7 3.6 11.4-1.4 0.3-2.7 0.2-0.2-1.2-0.4-2.4-1.1-0.3-2.3-0.3-1.2 0-2.2 0.5 0 1.1-0.4 2.1-1.2 0.2-2.4 0.1 1.8-5.7 3.7-11.4 1.5-0.3 3.1-0.2zm-3.1 6.9q1.5 0.5 2.9 0-0.7-2.3-1.6-4.5-0.4 2.3-1.3 4.5z"/>
	</g>
	<g id="Layer">
		<path id="Layer" fill-rule="evenodd" class="s3" d="m113.4 22.2q0.6 0 1.3 0 0 0.6 0 1.1 0.2 1.7 0.2 3.4-11.4 3.1-8.9-8.5 2.6-3.8 7.1-2.8 1 0.2 1.8 0.8-0.3 1-0.6 2.1-7.2-3.1-6.1 4.8 0.6 2.3 3.1 2.2 0.6-0.1 1.2-0.2 0-1.4 0-2.9 0.4 0 0.9 0z"/>
	</g>
	<g id="Layer">
		<path id="Layer" fill-rule="evenodd" class="s4" d="m119.3 22.4q0.3 2.4 0.3 4.7-1.4 0-2.7 0 0-2.3 0.2-4.7 0-3.4 0-6.9 1.1 0 2.2 0 0 3.5 0 6.9z"/>
	</g>
	<g id="Layer">
		<path id="Layer" fill-rule="evenodd" class="s5" d="m122.2 15.5q1.2 0 2.5 0 0 0.9 0 1.8 0 3.9 0 7.8 1.9 0 3.9 0 0 1 0 2-3.2 0-6.4 0 0-5.8 0-11.6z"/>
	</g>
	<g id="Layer">
		<path id="Layer" fill-rule="evenodd" class="s6" d="m45.6 23.1q-1.1 0-2.2 0 0 0.8 0 1.6 0 1.2 0 2.4-0.6 0-1.3 0 0-5.8 0-11.6 2.7-0.1 5.3 0.3 2.5 1.5 1.7 4.4-0.7 2.7-3.5 2.9zm-1.9-1.3q0.7-0.1 1.3 0.2 3.6-1 2.1-4.5-1.6-0.8-3.4-0.7 0 2.5 0 5z"/>
	</g>
	<g id="Layer">
		<path id="Layer" fill-rule="evenodd" class="s7" d="m54.1 15.5q2.4-0.3 4.6 0.8 1.3 1.1 1.7 2.8 0.2 2.6-0.3 5.1-0.8 2.3-3.2 3-6.5 1-6.6-5.8 0-4.3 3.8-5.9zm-1.3 2.4q-1.1 2.6-0.6 5.4 1.5 4.2 5.4 2.1 1.8-2.4 1.2-5.4-0.7-3.9-4.5-3.2-0.8 0.5-1.5 1.1z"/>
	</g>
	<g id="Layer">
		<path id="Layer" fill-rule="evenodd" class="s8" d="m70.9 15.5q0.4 0 0.9 0 0 1.9 0 3.8-0.4 3.8-0.3 7.8-0.6 0-1.3 0-3-4.3-5.7-8.9-0.1-0.2-0.3-0.3-0.3 4.6-0.2 9.2-0.5 0-1.1 0 0-1.2 0-2.4 0-1.6 0-3.2 0-2.9 0-5.8 0.8 0 1.6 0 3 4.5 5.8 9.2 0.2-1.2 0.1-2.5-0.2-3.5 0.5-6.9z"/>
	</g>
	<g id="Layer">
		<path id="Layer" fill-rule="evenodd" class="s9" d="m81.5 15.7q0.1 0.6 0 1.4-1.5-0.3-3.1-0.3-0.3 5.1-0.2 10.3-0.7 0-1.3 0 0-5.1 0-10.3-1.7 0-3.4 0.3 0-0.6 0-1.2 4-0.3 8-0.2z"/>
	</g>
	<g id="Layer">
		<path id="Layer" fill-rule="evenodd" class="s10" d="m85.5 15.5q6.4-0.8 6.6 5.7-0.7 8.3-8.4 5.4-1.2-1.2-1.6-2.8-0.4-3 0.4-5.9 1.1-1.8 3-2.4zm-1.5 2.9q-1.1 3.3 0.3 6.5 2.6 2.6 5.3 0 1.1-2.4 0.6-4.9-0.6-3.9-4.5-3.2-1.1 0.5-1.7 1.6z"/>
	</g>
	<g id="Layer">
	</g>
	<g id="Layer">
		<path id="Layer" fill-rule="evenodd" class="s11" d="m16.2 0.5q0.8 0 1.6 0 0.1 1.6-0.3 3.1-12.5 2.7-13.5 15.4 0.9 13.1 13.8 15.3 0 1.7 0 3.3-13-1.8-16.5-14.5-2.2-14.7 10.9-21.4 2-0.7 4-1.2z"/>
	</g>
	<g id="Layer">
		<path id="Layer" fill-rule="evenodd" class="s12" d="m28.2 20.6q1.5 0 3.1 0 0 0.4 0 0.7-1.5 7.4-8.7 9.7-10.4 2-14.9-7.7-0.5-1.4-0.6-2.9 1.6 0 3.1 0.1 1.9 7 9 7.7 7.3-0.4 9-7.6z"/>
	</g>
</svg>